<?xml version="1.0" encoding="utf-8"?>
<!-- Generator: Adobe Illustrator 26.2.1, SVG Export Plug-In . SVG Version: 6.00 Build 0)  -->
<svg version="1.1" id="Layer_1" xmlns="http://www.w3.org/2000/svg" xmlns:xlink="http://www.w3.org/1999/xlink" x="0px" y="0px"
	 viewBox="0 0 800 100" style="enable-background:new 0 0 800 100;" xml:space="preserve">
<style type="text/css">
	.st0{fill:#00A6FB;}
</style>
<path class="st0" d="M59,4c-4.4,0-8,3.6-8,8s3.6,8,8,8s8-3.6,8-8S63.4,4,59,4z M23,22c-4.4,0-8,3.6-8,8s3.6,8,8,8s8-3.6,8-8
	S27.4,22,23,22z M95,22c-4.4,0-8,3.6-8,8s3.6,8,8,8s8-3.6,8-8S99.4,22,95,22z M57,23.8v14.4c0.7-0.1,1.3-0.2,2-0.2s1.3,0.1,2,0.2
	V23.8c-0.7,0.1-1.3,0.2-2,0.2S57.7,23.9,57,23.8z M83.7,34l-15.3,8.5c0.8,1,1.5,2.2,1.9,3.5l15.3-8.5C84.8,36.5,84.2,35.3,83.7,34z
	 M34.3,34c-0.5,1.3-1.1,2.5-2,3.5l15.3,8.6c0.4-1.3,1.1-2.5,1.9-3.5L34.3,34z M59,42c-4.4,0-8,3.6-8,8s3.6,8,8,8s8-3.6,8-8
	S63.4,42,59,42z M47.7,53.9l-15.3,8.6c0.8,1,1.5,2.2,2,3.5l15.3-8.5C48.8,56.4,48.1,55.2,47.7,53.9z M70.3,54.1
	c-0.2,0.6-0.5,1.2-0.8,1.8c0,0,0,0,0,0c-0.3,0.6-0.7,1.1-1.1,1.6L83.7,66c0.4-1.3,1.1-2.5,1.9-3.5L70.3,54.1z M57,61.8v14.4
	c0.7-0.1,1.3-0.2,2-0.2s1.3,0.1,2,0.2V61.8c-0.7,0.1-1.3,0.2-2,0.2S57.7,61.9,57,61.8z M23,62c-4.4,0-8,3.6-8,8s3.6,8,8,8s8-3.6,8-8
	S27.4,62,23,62z M95,62c-4.4,0-8,3.6-8,8s3.6,8,8,8s8-3.6,8-8S99.4,62,95,62z M59,80c-4.4,0-8,3.6-8,8s3.6,8,8,8s8-3.6,8-8
	S63.4,80,59,80z"/>
<path d="M185.4,95H200l-30.4-84.9h-16.1L123.2,95h14.5l6.1-17.3h35.5L185.4,95z M175.4,66.3h-27.7l13.9-39.4L175.4,66.3z
	 M199.4,61.3c0,21.1,13.7,34.8,32.9,34.8c16.5,0,27.2-9.2,31-22.3h-15c-2.6,7-7.7,10.6-16,10.6c-11.2,0-18.7-8.3-18.7-23.1
	c0-14.6,7.4-22.9,18.7-22.9c8.3,0,13.7,4.2,16,10.6h15c-3.8-14.2-14.5-22.3-31-22.3C213.1,26.7,199.4,40.3,199.4,61.3z M263.5,61.3
	c0,21.1,13.7,34.8,32.9,34.8c16.5,0,27.2-9.2,31-22.3h-15c-2.6,7-7.7,10.6-16,10.6c-11.2,0-18.7-8.3-18.7-23.1
	c0-14.6,7.4-22.9,18.7-22.9c8.3,0,13.7,4.2,16,10.6h15c-3.8-14.2-14.5-22.3-31-22.3C277.1,26.7,263.5,40.3,263.5,61.3z M393,27.8
	h-13.9v37.5c0,12.3-6.7,18.7-17,18.7c-10.1,0-16.8-6.3-16.8-18.7V27.8h-13.8v39.5c0,18.8,12,28.7,27.7,28.7c7.9,0,15.5-3.3,19.9-9
	V95H393V27.8z M497.4,95h13.8V55.3c0-18.8-12-28.7-27.7-28.7c-9.8,0-19.3,5.1-23.4,13.3c-4.6-8.8-13.5-13.3-24.1-13.3
	c-8.1,0-15.4,3.3-19.9,8.8v-7.7h-13.9V95h13.9V57.4c0-12.3,6.7-18.7,17-18.7c10.1,0,16.8,6.3,16.8,18.7V95h13.8V57.4
	c0-12.3,6.7-18.7,17-18.7c10.1,0,16.8,6.3,16.8,18.7V95z M580.7,27.8h-13.9v37.5c0,12.3-6.7,18.7-17,18.7
	c-10.1,0-16.8-6.3-16.8-18.7V27.8h-13.8v39.5c0,18.8,12,28.7,27.7,28.7c7.9,0,15.5-3.3,19.9-9V95h13.9V27.8z M589.8,95h13.9V4.7
	h-13.9V95z M608.2,61.1c0,20.7,14,35,31.5,35c11.2,0,19.3-5.4,23.5-11.1v10h14V27.8h-14v9.8c-4.1-5.5-12-10.9-23.3-10.9
	C622.2,26.7,608.2,40.3,608.2,61.1z M663.2,61.3c0,14.5-9.9,22.7-20.4,22.7c-10.4,0-20.4-8.4-20.4-22.9c0-14.5,10-22.3,20.4-22.3
	C653.4,38.8,663.2,46.9,663.2,61.3z M688.6,76.3C688.6,90,696.1,95,708,95h11V83.4h-8.5c-5.9,0-7.8-2.1-7.8-7.1V39.1H719V27.8h-16.3
	V11.1h-14v16.7h-7.9v11.3h7.9V76.3z M751,38.4c10.4,0,18.5,6.6,18.8,17h-37.2C734,44.7,741.6,38.4,751,38.4z M782.4,75h-15
	c-2.6,5.2-7.3,9.4-15.9,9.4c-10.2,0-18.2-6.7-19.2-17.8h51.4c0.4-2.3,0.5-4.5,0.5-6.8c0-19.8-13.6-33.1-32.7-33.1
	c-19.9,0-33.5,13.5-33.5,34.7c0,21.1,14.3,34.8,33.5,34.8C768,96.1,778.7,86.7,782.4,75z"/>
</svg>
