<svg id="Layer_1" data-name="Layer 1" xmlns="http://www.w3.org/2000/svg" viewBox="0 0 422.39 98.64"><path d="M44,0a8,8,0,1,0,8,8A8,8,0,0,0,44,0ZM8,18a8,8,0,1,0,8,8A8,8,0,0,0,8,18Zm72,0a8,8,0,1,0,8,8A8,8,0,0,0,80,18ZM42,19.82V34.18a11.2,11.2,0,0,1,4,0V19.82a11.2,11.2,0,0,1-4,0ZM68.7,30,53.36,38.51A12,12,0,0,1,55.3,42l15.34-8.52A11.75,11.75,0,0,1,68.7,30ZM19.29,30a11.85,11.85,0,0,1-1.95,3.49l15.31,8.62a12.1,12.1,0,0,1,1.9-3.52ZM44,38a8,8,0,1,0,8,8A8,8,0,0,0,44,38ZM32.68,49.93,17.35,58.5A12,12,0,0,1,19.3,62l15.3-8.55A12,12,0,0,1,32.68,49.93Zm22.59.16a12.67,12.67,0,0,1-.84,1.83h0a12.48,12.48,0,0,1-1.12,1.64L68.69,62a12.32,12.32,0,0,1,1.93-3.5ZM42,57.82V72.18a11.2,11.2,0,0,1,4,0V57.82a11.2,11.2,0,0,1-4,0ZM8,58a8,8,0,1,0,8,8A8,8,0,0,0,8,58Zm72,0a8,8,0,1,0,8,8A8,8,0,0,0,80,58ZM44,76a8,8,0,1,0,8,8A8,8,0,0,0,44,76Z" style="fill:#00a6fb"/><path d="M137.69,80A6,6,0,0,1,131,73.33V17.5a6.7,6.7,0,0,1,1.71-4.95,6.75,6.75,0,0,1,5-1.72h23.54A31.65,31.65,0,0,1,173.59,13a17.14,17.14,0,0,1,7.8,6.18,16.85,16.85,0,0,1,2.7,9.62,15.91,15.91,0,0,1-3.63,10.59,17.78,17.78,0,0,1-9.91,5.79V43.7q7.26,1.08,11.29,5.49t4,11.48q0,9.22-6.23,14.28t-17.32,5Zm5.39-39.83h16q6.48,0,9.67-2.51c2.12-1.66,3.19-4.13,3.19-7.4s-1.07-5.74-3.19-7.41-5.35-2.5-9.67-2.5h-16Zm0,30.31h17.66q6.67,0,9.81-2.6c2.1-1.73,3.14-4.33,3.14-7.8s-1-6.15-3.14-7.85-5.36-2.55-9.81-2.55H143.08Z"/><path d="M203.61,80.78a5.66,5.66,0,0,1-6.28-6.28V37.42a6.26,6.26,0,0,1,1.57-4.61,7,7,0,0,1,8.83,0,6.22,6.22,0,0,1,1.57,4.61V43.6h-1a15,15,0,0,1,5.4-8.93A20.39,20.39,0,0,1,224.41,31a3.91,3.91,0,0,1,3.29,1,5.81,5.81,0,0,1,1.42,3.78,5.14,5.14,0,0,1-1.13,4,5.87,5.87,0,0,1-4,1.82l-2.16.19q-6,.6-9,3.68t-3.05,8.69V74.5a6.45,6.45,0,0,1-1.56,4.66A6.16,6.16,0,0,1,203.61,80.78Z"/><path d="M241.88,22.21a7.74,7.74,0,0,1-5.35-1.71,6.06,6.06,0,0,1-1.91-4.76,6,6,0,0,1,1.91-4.81,9.47,9.47,0,0,1,10.74,0,6.12,6.12,0,0,1,1.87,4.81,6.17,6.17,0,0,1-1.87,4.76A7.7,7.7,0,0,1,241.88,22.21Zm0,58.47a5.72,5.72,0,0,1-4.52-1.76A7.17,7.17,0,0,1,235.79,74V38a7.15,7.15,0,0,1,1.57-5,5.83,5.83,0,0,1,4.52-1.71,6,6,0,0,1,4.56,1.71,7,7,0,0,1,1.62,5V74a7.17,7.17,0,0,1-1.57,4.91A5.85,5.85,0,0,1,241.88,80.68Z"/><path d="M279.25,81a19.47,19.47,0,0,1-18.44-11.73A30.9,30.9,0,0,1,258.16,56a30.53,30.53,0,0,1,2.65-13.29A19.59,19.59,0,0,1,279.25,31a18.48,18.48,0,0,1,10.45,3,14.48,14.48,0,0,1,6,7.75h-1.08V16.23a6.22,6.22,0,0,1,1.57-4.61,6.08,6.08,0,0,1,4.51-1.57,6.27,6.27,0,0,1,4.56,1.57,6.12,6.12,0,0,1,1.62,4.61V74.5a6.41,6.41,0,0,1-1.57,4.66,7.09,7.09,0,0,1-9,0,6.41,6.41,0,0,1-1.57-4.66V66.85l1.07,2.94a14.34,14.34,0,0,1-6,8.15A18.49,18.49,0,0,1,279.25,81Zm3.44-9.32a11.54,11.54,0,0,0,6.38-1.77,11.38,11.38,0,0,0,4.26-5.25A21.6,21.6,0,0,0,294.85,56q0-7.85-3.33-11.72a11.07,11.07,0,0,0-8.83-3.88,11.83,11.83,0,0,0-6.38,1.72,11.21,11.21,0,0,0-4.27,5.2A21.81,21.81,0,0,0,270.52,56q0,7.76,3.34,11.73A11,11,0,0,0,282.69,71.66Z"/><path d="M342,98.64a53,53,0,0,1-10.25-1,34.52,34.52,0,0,1-9-3,5.39,5.39,0,0,1-2.5-2.36,4.69,4.69,0,0,1-.39-2.79A5,5,0,0,1,321.1,87a4.67,4.67,0,0,1,2.3-1.47,3.74,3.74,0,0,1,2.85.39,29,29,0,0,0,8.19,2.8,41.18,41.18,0,0,0,6.62.64q6.57,0,9.86-3.19t3.29-9.47V67.83h.88a14,14,0,0,1-6.13,8,19.14,19.14,0,0,1-10.55,3,21,21,0,0,1-11.28-3,20,20,0,0,1-7.46-8.39A28.25,28.25,0,0,1,317,54.88a29.39,29.39,0,0,1,1.53-9.76,22,22,0,0,1,4.31-7.5,19,19,0,0,1,6.77-4.86A22,22,0,0,1,338.41,31a19,19,0,0,1,10.65,3,13.65,13.65,0,0,1,5.93,7.9l-1,2.45v-7a6.12,6.12,0,0,1,1.62-4.61,7.21,7.21,0,0,1,9,0,6.26,6.26,0,0,1,1.57,4.61V75.19q0,11.67-6.18,17.56T342,98.64Zm-.29-29.14a11.86,11.86,0,0,0,6.57-1.77,11.65,11.65,0,0,0,4.27-5.05,18.49,18.49,0,0,0,1.52-7.8q0-6.77-3.34-10.64a11.27,11.27,0,0,0-9-3.88,11.92,11.92,0,0,0-6.58,1.77,11.65,11.65,0,0,0-4.26,5,18,18,0,0,0-1.52,7.75q0,6.78,3.33,10.7A11.24,11.24,0,0,0,341.75,69.5Z"/><path d="M402.57,81a30.19,30.19,0,0,1-14-3,21.62,21.62,0,0,1-9.07-8.64,26.22,26.22,0,0,1-3.19-13.24A26.56,26.56,0,0,1,379.37,43a22.73,22.73,0,0,1,8.54-8.78,25.85,25.85,0,0,1,21.58-1.52,19.16,19.16,0,0,1,7,4.81,21.16,21.16,0,0,1,4.41,7.6,31.22,31.22,0,0,1,1.52,10.06,3.22,3.22,0,0,1-1.22,2.7,5.68,5.68,0,0,1-3.49.93H386.19V51.74h27.57l-1.57,1.47a19,19,0,0,0-1.32-7.55A10.28,10.28,0,0,0,407,41a11.25,11.25,0,0,0-6.23-1.62,12.49,12.49,0,0,0-7,1.91,12.07,12.07,0,0,0-4.41,5.4A20.52,20.52,0,0,0,387.86,55v.69q0,8,3.77,12t11.14,4a29.24,29.24,0,0,0,5.74-.64,20.63,20.63,0,0,0,6-2.21,6.44,6.44,0,0,1,3.63-1,3.87,3.87,0,0,1,2.51,1.13,4.26,4.26,0,0,1,1.12,2.41,4.89,4.89,0,0,1-.54,2.89,6.4,6.4,0,0,1-2.5,2.55A25.56,25.56,0,0,1,410.87,80,37,37,0,0,1,402.57,81Z"/></svg>