<svg id="Layer_1" data-name="Layer 1" xmlns="http://www.w3.org/2000/svg" viewBox="0 0 440 440"><circle cx="220" cy="220" r="220" style="fill:#00a6fb"/><g id="surface161338288"><path d="M220,38.55A31.56,31.56,0,1,0,251.56,70.1,31.55,31.55,0,0,0,220,38.55Zm-142,71a31.56,31.56,0,1,0,31.56,31.56A31.56,31.56,0,0,0,78,109.55Zm284,0a31.56,31.56,0,1,0,31.56,31.56A31.56,31.56,0,0,0,362,109.55Zm-149.9,7.18v56.66a46.32,46.32,0,0,1,7.89-.73,48.52,48.52,0,0,1,7.89.71V116.73A44,44,0,0,1,212.11,116.73Zm105.31,40.11-60.5,33.62a47.07,47.07,0,0,1,7.65,13.76l60.5-33.61a47.35,47.35,0,0,1-7.65-13.77ZM122.55,157a47.26,47.26,0,0,1-7.7,13.75l60.39,34a47.37,47.37,0,0,1,7.51-13.87ZM220,188.44A31.56,31.56,0,1,0,251.56,220,31.56,31.56,0,0,0,220,188.44ZM175.33,235.5l-60.45,33.79a47.21,47.21,0,0,1,7.67,13.82l60.37-33.77A47.19,47.19,0,0,1,175.33,235.5Zm89.15.65a47.25,47.25,0,0,1-3.31,7.19v.07a47.54,47.54,0,0,1-4.43,6.45l60.75,33.38a47.66,47.66,0,0,1,7.64-13.81Zm-52.37,30.48v56.66a44,44,0,0,1,15.78,0V266.63A44.5,44.5,0,0,1,212.11,266.63ZM78,267.34a31.56,31.56,0,1,0,31.56,31.55A31.55,31.55,0,0,0,78,267.34Zm284,0a31.56,31.56,0,1,0,31.56,31.55A31.55,31.55,0,0,0,362,267.34Zm-142,71a31.56,31.56,0,1,0,31.56,31.56A31.56,31.56,0,0,0,220,338.34Z" style="fill:#fff"/></g></svg>